<svg xmlns="http://www.w3.org/2000/svg" xmlns:xlink="http://www.w3.org/1999/xlink" width="119" height="53.658" viewBox="0 0 119 53.658">
  <defs>
    <clipPath id="clip-path">
      <rect id="Rectangle_1204" data-name="Rectangle 1204" width="119" height="53.658" fill="none"/>
    </clipPath>
  </defs>
  <g id="Groupe_758" data-name="Groupe 758" clip-path="url(#clip-path)">
    <path id="Tracé_477" data-name="Tracé 477" d="M20.021.4a.616.616,0,0,0-.312.33L13.987,11.1a6.187,6.187,0,0,0-.283.594q-.131.312-.247.63-.118-.318-.255-.625c-.089-.2-.181-.4-.276-.589L7.1.728A.681.681,0,0,0,6.783.4,1.486,1.486,0,0,0,6.312.34H4.628V17.209h2V4.812a10.32,10.32,0,0,0-.071-1.154l5.909,10.595a.876.876,0,0,0,.826.53h.33a.881.881,0,0,0,.824-.53L20.238,3.706q-.023.3-.042.578c-.012.188-.017.364-.017.529v12.4h2V.34H20.5A1.533,1.533,0,0,0,20.021.4" transform="translate(1.782 0.131)" fill="#fff"/>
    <path id="Tracé_478" data-name="Tracé 478" d="M20.812,14.409a4.985,4.985,0,0,0,1.8,1.224,6.061,6.061,0,0,0,2.277.418A7.762,7.762,0,0,0,26.2,15.94a7.35,7.35,0,0,0,1.278-.335,5.855,5.855,0,0,0,1.159-.571,3.981,3.981,0,0,0,.929-.819l-.589-.765a.459.459,0,0,0-.4-.2.912.912,0,0,0-.476.183,7.459,7.459,0,0,1-.688.395,6.333,6.333,0,0,1-.983.393,4.48,4.48,0,0,1-1.359.183,4.018,4.018,0,0,1-1.531-.277,3.108,3.108,0,0,1-1.177-.835,3.947,3.947,0,0,1-.771-1.395,6.982,6.982,0,0,1-.312-1.965h7.97a.439.439,0,0,0,.4-.166,1.361,1.361,0,0,0,.105-.658,6.354,6.354,0,0,0-.377-2.267,4.749,4.749,0,0,0-1.042-1.67,4.487,4.487,0,0,0-1.578-1.036,5.361,5.361,0,0,0-1.983-.36,5.766,5.766,0,0,0-2.331.454,5.066,5.066,0,0,0-1.754,1.248,5.477,5.477,0,0,0-1.1,1.877A6.957,6.957,0,0,0,19.2,9.683a8.115,8.115,0,0,0,.424,2.731,5.624,5.624,0,0,0,1.183,1.995m1.625-8.216A3.63,3.63,0,0,1,26.1,5.557a2.688,2.688,0,0,1,.96.683,3.018,3.018,0,0,1,.6,1.047,4.144,4.144,0,0,1,.2,1.337H21.348a4.109,4.109,0,0,1,1.089-2.431" transform="translate(7.396 1.453)" fill="#fff"/>
    <path id="Tracé_479" data-name="Tracé 479" d="M33.682,13.98a2.238,2.238,0,0,1-.765.429,3.259,3.259,0,0,1-1.072.159,3.773,3.773,0,0,1-1.2-.165,4.328,4.328,0,0,1-.817-.364c-.224-.134-.414-.256-.572-.366a.791.791,0,0,0-.446-.165.6.6,0,0,0-.331.083.7.7,0,0,0-.223.235l-.494.8A5.75,5.75,0,0,0,29.48,15.67a6.033,6.033,0,0,0,2.26.406,5.781,5.781,0,0,0,1.929-.3,4.156,4.156,0,0,0,1.413-.806,3.3,3.3,0,0,0,.871-1.212,3.887,3.887,0,0,0,.3-1.525,2.657,2.657,0,0,0-.265-1.23,2.705,2.705,0,0,0-.7-.866,4.171,4.171,0,0,0-.989-.589c-.368-.157-.748-.3-1.136-.429s-.767-.251-1.136-.364a5.978,5.978,0,0,1-.989-.395,2.284,2.284,0,0,1-.7-.53,1.122,1.122,0,0,1-.265-.765,1.461,1.461,0,0,1,.159-.677,1.648,1.648,0,0,1,.458-.547,2.334,2.334,0,0,1,.724-.371,3.13,3.13,0,0,1,.953-.134,3.685,3.685,0,0,1,1.06.134,5.224,5.224,0,0,1,.771.3c.215.105.4.2.547.288a.813.813,0,0,0,.4.13.466.466,0,0,0,.435-.259l.471-.766A5.02,5.02,0,0,0,34.43,4.144a5.714,5.714,0,0,0-2.114-.371,5.318,5.318,0,0,0-1.8.283,4.074,4.074,0,0,0-1.331.759,3.236,3.236,0,0,0-.823,1.107,3.157,3.157,0,0,0-.284,1.313,2.9,2.9,0,0,0,.266,1.3,2.734,2.734,0,0,0,.7.9,3.989,3.989,0,0,0,1,.607c.373.161.752.3,1.141.429s.769.245,1.141.36a5.612,5.612,0,0,1,.994.4,2.209,2.209,0,0,1,.7.553,1.247,1.247,0,0,1,.265.819,1.926,1.926,0,0,1-.147.752,1.7,1.7,0,0,1-.453.625" transform="translate(10.69 1.453)" fill="#fff"/>
    <path id="Tracé_480" data-name="Tracé 480" d="M50.306,8.08a4.441,4.441,0,0,0,.817-1.395,4.853,4.853,0,0,0,.283-1.672,4.949,4.949,0,0,0-.364-1.936A3.759,3.759,0,0,0,49.917,1.6,5.272,5.272,0,0,0,47.992.664,10.4,10.4,0,0,0,45.225.34H40.458V17.209H42.73V10.17h1.731a1.558,1.558,0,0,1,.712.123,1.291,1.291,0,0,1,.429.406l4.38,6.028a1,1,0,0,0,.918.482h2.025L48,10.511a2.258,2.258,0,0,0-.753-.717A6.516,6.516,0,0,0,49,9.134,4.93,4.93,0,0,0,50.306,8.08m-2.155-.494a3.555,3.555,0,0,1-1.272.683,5.777,5.777,0,0,1-1.748.241h-2.4V2.141h2.5a4.8,4.8,0,0,1,2.967.766,2.694,2.694,0,0,1,.989,2.272,3.451,3.451,0,0,1-.259,1.353,2.823,2.823,0,0,1-.771,1.054" transform="translate(15.58 0.131)" fill="#fff"/>
    <path id="Tracé_481" data-name="Tracé 481" d="M60.621,12.461a7.678,7.678,0,0,0,.395-2.542,7.694,7.694,0,0,0-.395-2.537,5.421,5.421,0,0,0-1.136-1.936A5.064,5.064,0,0,0,57.7,4.209a6.1,6.1,0,0,0-2.355-.435,6.173,6.173,0,0,0-2.371.435,5.048,5.048,0,0,0-1.8,1.237,5.4,5.4,0,0,0-1.137,1.936,7.73,7.73,0,0,0-.393,2.537,7.715,7.715,0,0,0,.393,2.542,5.415,5.415,0,0,0,1.137,1.931,4.945,4.945,0,0,0,1.8,1.23,6.225,6.225,0,0,0,2.371.431,6.149,6.149,0,0,0,2.355-.431,4.959,4.959,0,0,0,1.79-1.23,5.433,5.433,0,0,0,1.136-1.931m-2.643.771a3.063,3.063,0,0,1-2.637,1.183,3.1,3.1,0,0,1-2.666-1.183,5.45,5.45,0,0,1-.877-3.3,7.6,7.6,0,0,1,.217-1.9,3.941,3.941,0,0,1,.659-1.418,2.907,2.907,0,0,1,1.107-.882,3.708,3.708,0,0,1,1.56-.306,3.056,3.056,0,0,1,2.637,1.188,5.536,5.536,0,0,1,.871,3.32,5.479,5.479,0,0,1-.871,3.3" transform="translate(19.117 1.453)" fill="#fff"/>
    <path id="Tracé_482" data-name="Tracé 482" d="M63.13,4.3a5.419,5.419,0,0,0-.924.607,7.109,7.109,0,0,0-.824.788l-.165-1.3a.518.518,0,0,0-.554-.435H59.4V15.887h2.107V7.105A5.726,5.726,0,0,1,63,5.893a3.512,3.512,0,0,1,1.737-.447,2.3,2.3,0,0,1,1.878.747,3.215,3.215,0,0,1,.618,2.1v7.593h2.107V8.294a6.205,6.205,0,0,0-.259-1.848,4.074,4.074,0,0,0-.759-1.431A3.342,3.342,0,0,0,67.073,4.1a4.327,4.327,0,0,0-1.724-.323,4.855,4.855,0,0,0-1.183.136A4.651,4.651,0,0,0,63.13,4.3" transform="translate(22.876 1.453)" fill="#fff"/>
    <path id="Tracé_483" data-name="Tracé 483" d="M69.339,15.951a3.854,3.854,0,0,0,1.425,1.159,4.294,4.294,0,0,0,1.859.395,4.431,4.431,0,0,0,2.26-.565,6.473,6.473,0,0,0,1.742-1.483l.188,1.447a.536.536,0,0,0,.565.436h1.248V0h-2.1V6.6a4.511,4.511,0,0,0-1.395-1.031A4.367,4.367,0,0,0,73.259,5.2a4.779,4.779,0,0,0-2.158.476,4.7,4.7,0,0,0-1.621,1.313,6.092,6.092,0,0,0-1.012,1.972,8.27,8.27,0,0,0-.353,2.454,9.808,9.808,0,0,0,.319,2.625,5.523,5.523,0,0,0,.906,1.907m1.838-7.923A3,3,0,0,1,73.73,6.84a3.646,3.646,0,0,1,1.531.312,3.362,3.362,0,0,1,1.272,1.1v5.758a5.2,5.2,0,0,1-1.418,1.33,3.394,3.394,0,0,1-1.808.471,3.16,3.16,0,0,1-1.281-.248,2.308,2.308,0,0,1-.956-.783,3.827,3.827,0,0,1-.587-1.366,8.554,8.554,0,0,1-.2-1.995,5.539,5.539,0,0,1,.9-3.391" transform="translate(26.23 0)" fill="#fff"/>
    <path id="Tracé_484" data-name="Tracé 484" d="M84.574,10.143a4.125,4.125,0,0,0-.989-.589c-.368-.157-.748-.3-1.136-.429s-.767-.251-1.136-.366a6.1,6.1,0,0,1-.989-.393,2.3,2.3,0,0,1-.7-.53,1.128,1.128,0,0,1-.265-.765,1.461,1.461,0,0,1,.159-.677,1.635,1.635,0,0,1,.458-.547,2.276,2.276,0,0,1,.724-.371,3.129,3.129,0,0,1,.953-.136,3.681,3.681,0,0,1,1.06.136,5.073,5.073,0,0,1,.771.3c.216.105.4.2.547.288a.824.824,0,0,0,.4.129.464.464,0,0,0,.436-.259l.47-.765a4.974,4.974,0,0,0-1.618-1.018,5.686,5.686,0,0,0-2.114-.371,5.324,5.324,0,0,0-1.8.283,4.053,4.053,0,0,0-1.33.759,3.222,3.222,0,0,0-.824,1.107,3.174,3.174,0,0,0-.284,1.313,2.9,2.9,0,0,0,.266,1.3,2.748,2.748,0,0,0,.7.9,4.015,4.015,0,0,0,1,.607q.559.241,1.141.429c.389.126.769.245,1.143.359a5.764,5.764,0,0,1,.994.4,2.242,2.242,0,0,1,.7.554,1.242,1.242,0,0,1,.266.817,1.934,1.934,0,0,1-.148.753,1.7,1.7,0,0,1-.453.625,2.262,2.262,0,0,1-.765.429,3.3,3.3,0,0,1-1.072.159,3.779,3.779,0,0,1-1.2-.165,4.325,4.325,0,0,1-.817-.366q-.337-.2-.571-.364a.788.788,0,0,0-.447-.165.609.609,0,0,0-.33.082.72.72,0,0,0-.224.235l-.494.8a5.719,5.719,0,0,0,1.719,1.042,6.006,6.006,0,0,0,2.26.407,5.8,5.8,0,0,0,1.931-.3,4.229,4.229,0,0,0,1.413-.806,3.322,3.322,0,0,0,.87-1.213,3.885,3.885,0,0,0,.3-1.524,2.653,2.653,0,0,0-.265-1.23,2.69,2.69,0,0,0-.7-.866" transform="translate(29.672 1.453)" fill="#fff"/>
    <path id="Tracé_485" data-name="Tracé 485" d="M8.417,23.6a4.572,4.572,0,0,0-1.395-1.031,4.368,4.368,0,0,0-1.878-.37,4.771,4.771,0,0,0-2.159.476,4.677,4.677,0,0,0-1.619,1.313A6.044,6.044,0,0,0,.353,25.962,8.232,8.232,0,0,0,0,28.417a9.808,9.808,0,0,0,.319,2.625,5.523,5.523,0,0,0,.906,1.907,3.834,3.834,0,0,0,1.424,1.159,4.3,4.3,0,0,0,1.86.395,4.431,4.431,0,0,0,2.26-.565,6.494,6.494,0,0,0,1.742-1.483L8.7,33.9a.535.535,0,0,0,.565.435h1.248V17h-2.1Zm0,7.4A5.16,5.16,0,0,1,7,32.336a3.394,3.394,0,0,1-1.808.471,3.172,3.172,0,0,1-1.283-.247,2.313,2.313,0,0,1-.954-.783,3.864,3.864,0,0,1-.589-1.366,8.658,8.658,0,0,1-.2-2,5.554,5.554,0,0,1,.895-3.391,3,3,0,0,1,2.554-1.188,3.646,3.646,0,0,1,1.531.312,3.375,3.375,0,0,1,1.272,1.1Z" transform="translate(0 6.546)" fill="#fff"/>
    <path id="Tracé_486" data-name="Tracé 486" d="M18.289,22.167a4.468,4.468,0,0,0-1.578-1.036,5.361,5.361,0,0,0-1.983-.36,5.789,5.789,0,0,0-2.331.454,5.084,5.084,0,0,0-1.754,1.248,5.477,5.477,0,0,0-1.1,1.877,6.951,6.951,0,0,0-.382,2.331,8.12,8.12,0,0,0,.424,2.731,5.624,5.624,0,0,0,1.183,1.995,5,5,0,0,0,1.8,1.224,6.061,6.061,0,0,0,2.277.418,7.79,7.79,0,0,0,1.308-.112A7.367,7.367,0,0,0,17.43,32.6a5.855,5.855,0,0,0,1.159-.571,3.953,3.953,0,0,0,.929-.819l-.589-.765a.459.459,0,0,0-.4-.2.912.912,0,0,0-.476.183,7.461,7.461,0,0,1-.688.395,6.334,6.334,0,0,1-.983.393,4.48,4.48,0,0,1-1.359.183,4.044,4.044,0,0,1-1.531-.277,3.108,3.108,0,0,1-1.177-.835,3.947,3.947,0,0,1-.771-1.395,6.984,6.984,0,0,1-.312-1.967H19.2a.439.439,0,0,0,.4-.165,1.368,1.368,0,0,0,.105-.659,6.346,6.346,0,0,0-.377-2.266,4.736,4.736,0,0,0-1.042-1.67M11.3,25.622a4.109,4.109,0,0,1,1.089-2.431,3.222,3.222,0,0,1,2.384-.877,3.245,3.245,0,0,1,1.284.241,2.666,2.666,0,0,1,.958.683,3,3,0,0,1,.6,1.047,4.144,4.144,0,0,1,.2,1.337Z" transform="translate(3.527 7.999)" fill="#fff"/>
    <path id="Tracé_487" data-name="Tracé 487" d="M32.013,26.161a5.243,5.243,0,0,0-1.3-.819c-.482-.215-.976-.41-1.483-.582s-1-.339-1.483-.5a7.016,7.016,0,0,1-1.3-.571,2.987,2.987,0,0,1-.918-.794,1.906,1.906,0,0,1-.346-1.172,2.648,2.648,0,0,1,.2-1.031,2.308,2.308,0,0,1,.594-.83,2.883,2.883,0,0,1,.978-.56A4.041,4.041,0,0,1,28.31,19.1a4.219,4.219,0,0,1,1.384.2,5.48,5.48,0,0,1,.976.442c.271.161.5.307.677.44a.832.832,0,0,0,.471.2.494.494,0,0,0,.3-.089.849.849,0,0,0,.23-.265l.554-1.083a6.094,6.094,0,0,0-2.043-1.3,7.1,7.1,0,0,0-2.572-.447,5.979,5.979,0,0,0-2.231.389,4.94,4.94,0,0,0-1.636,1.036,4.41,4.41,0,0,0-1.013,1.482,4.848,4.848,0,0,0,0,3.608,3.77,3.77,0,0,0,.913,1.266,4.767,4.767,0,0,0,1.3.824,15.579,15.579,0,0,0,1.483.56q.752.241,1.482.471a6.328,6.328,0,0,1,1.3.558,2.887,2.887,0,0,1,.913.819,2.115,2.115,0,0,1,.348,1.254,3.254,3.254,0,0,1-.235,1.26,2.738,2.738,0,0,1-.677.971,3.089,3.089,0,0,1-1.078.63,4.369,4.369,0,0,1-1.447.223,4.891,4.891,0,0,1-2.09-.435,4.691,4.691,0,0,1-.723-.413c-.212-.148-.4-.287-.565-.411s-.312-.23-.442-.313a.67.67,0,0,0-.348-.123.53.53,0,0,0-.3.089.84.84,0,0,0-.23.217l-.659,1.083a7.016,7.016,0,0,0,2.3,1.607,7.31,7.31,0,0,0,2.99.594,6.555,6.555,0,0,0,2.4-.411,5.129,5.129,0,0,0,1.777-1.13,4.813,4.813,0,0,0,1.1-1.69,5.7,5.7,0,0,0,.375-2.078,4.043,4.043,0,0,0-.346-1.766,3.731,3.731,0,0,0-.918-1.212" transform="translate(8.604 6.624)" fill="#fff"/>
    <path id="Tracé_488" data-name="Tracé 488" d="M40.539,22.167a4.468,4.468,0,0,0-1.578-1.036,5.354,5.354,0,0,0-1.982-.36,5.78,5.78,0,0,0-2.331.454,5.089,5.089,0,0,0-1.755,1.248,5.477,5.477,0,0,0-1.1,1.877,6.951,6.951,0,0,0-.382,2.331,8.12,8.12,0,0,0,.424,2.731,5.624,5.624,0,0,0,1.183,1.995,5,5,0,0,0,1.8,1.224,6.061,6.061,0,0,0,2.277.418,7.79,7.79,0,0,0,1.308-.112,7.415,7.415,0,0,0,1.278-.335,5.843,5.843,0,0,0,1.158-.571,3.953,3.953,0,0,0,.929-.819l-.587-.765a.462.462,0,0,0-.4-.2.916.916,0,0,0-.478.183,7.461,7.461,0,0,1-.688.395,6.37,6.37,0,0,1-.982.393,4.489,4.489,0,0,1-1.36.183,4.049,4.049,0,0,1-1.531-.277,3.108,3.108,0,0,1-1.177-.835,3.923,3.923,0,0,1-.77-1.395,6.981,6.981,0,0,1-.313-1.967h7.97a.437.437,0,0,0,.4-.165,1.368,1.368,0,0,0,.105-.659,6.346,6.346,0,0,0-.377-2.266,4.736,4.736,0,0,0-1.042-1.67m-6.985,3.454a4.1,4.1,0,0,1,1.087-2.431,3.632,3.632,0,0,1,3.668-.636,2.666,2.666,0,0,1,.958.683,3,3,0,0,1,.6,1.047,4.143,4.143,0,0,1,.208,1.337Z" transform="translate(12.096 7.999)" fill="#fff"/>
    <path id="Tracé_489" data-name="Tracé 489" d="M45.937,20.755a3.036,3.036,0,0,0-2.014.688,5.381,5.381,0,0,0-1.389,1.913l-.141-1.813a.784.784,0,0,0-.177-.446.654.654,0,0,0-.471-.13h-1.2V32.893h2.108V25.358a6.989,6.989,0,0,1,.5-1.089,3.47,3.47,0,0,1,.623-.8,2.359,2.359,0,0,1,.789-.489,2.867,2.867,0,0,1,1.006-.165,3.327,3.327,0,0,1,.719.071,2.43,2.43,0,0,0,.482.071.336.336,0,0,0,.353-.294l.154-1.565a1.887,1.887,0,0,0-.618-.259,3.094,3.094,0,0,0-.723-.083" transform="translate(15.613 7.993)" fill="#fff"/>
    <path id="Tracé_490" data-name="Tracé 490" d="M55.993,20.908a.629.629,0,0,0-.388.123.684.684,0,0,0-.235.312l-3.061,7.676q-.154.436-.259.848t-.2.824q-.094-.413-.2-.824t-.248-.848l-3.025-7.676a.65.65,0,0,0-.223-.306.672.672,0,0,0-.424-.129H46.022l4.862,11.926h1.884L57.63,20.908Z" transform="translate(17.723 8.052)" fill="#fff"/>
    <path id="Tracé_491" data-name="Tracé 491" d="M58.208,18.624a1.431,1.431,0,0,0-.123-.583,1.61,1.61,0,0,0-.33-.482,1.513,1.513,0,0,0-.483-.324,1.485,1.485,0,0,0-.582-.118,1.409,1.409,0,0,0-.572.118,1.491,1.491,0,0,0-.464.324,1.555,1.555,0,0,0-.319.482,1.5,1.5,0,0,0-.118.583,1.4,1.4,0,0,0,.118.571,1.588,1.588,0,0,0,.319.471,1.491,1.491,0,0,0,.464.324,1.387,1.387,0,0,0,.572.118,1.461,1.461,0,0,0,.582-.118,1.513,1.513,0,0,0,.483-.324,1.65,1.65,0,0,0,.33-.471,1.341,1.341,0,0,0,.123-.571" transform="translate(21.264 6.592)" fill="#fff"/>
    <rect id="Rectangle_1202" data-name="Rectangle 1202" width="2.096" height="11.926" transform="translate(76.929 28.959)" fill="#fff"/>
    <path id="Tracé_492" data-name="Tracé 492" d="M68.958,31.213l-.589-.765a.459.459,0,0,0-.4-.2.912.912,0,0,0-.476.183,7.459,7.459,0,0,1-.688.395,6.334,6.334,0,0,1-.983.393,4.48,4.48,0,0,1-1.359.183,4.018,4.018,0,0,1-1.531-.277,3.108,3.108,0,0,1-1.177-.835,3.946,3.946,0,0,1-.771-1.395,6.982,6.982,0,0,1-.312-1.965h7.97a.439.439,0,0,0,.4-.166,1.361,1.361,0,0,0,.105-.658,6.354,6.354,0,0,0-.377-2.267,4.749,4.749,0,0,0-1.042-1.67,4.487,4.487,0,0,0-1.578-1.036,5.361,5.361,0,0,0-1.983-.36,5.766,5.766,0,0,0-2.331.454,5.066,5.066,0,0,0-1.754,1.248,5.477,5.477,0,0,0-1.1,1.877,6.957,6.957,0,0,0-.382,2.331,8.115,8.115,0,0,0,.424,2.731,5.624,5.624,0,0,0,1.183,1.995,4.985,4.985,0,0,0,1.8,1.224,6.061,6.061,0,0,0,2.277.418,7.762,7.762,0,0,0,1.306-.112,7.35,7.35,0,0,0,1.278-.335,5.855,5.855,0,0,0,1.159-.571,3.981,3.981,0,0,0,.929-.819M61.83,23.191a3.63,3.63,0,0,1,3.666-.636,2.688,2.688,0,0,1,.96.683,3.018,3.018,0,0,1,.6,1.047,4.144,4.144,0,0,1,.2,1.337H60.742a4.109,4.109,0,0,1,1.089-2.431" transform="translate(22.566 7.999)" fill="#fff"/>
    <path id="Tracé_493" data-name="Tracé 493" d="M81.281,31.814a.387.387,0,0,0-.217.089c-.083.058-.183.123-.3.194a2.411,2.411,0,0,1-.418.194,1.641,1.641,0,0,1-.571.089,1.285,1.285,0,0,1-.936-.364,1.512,1.512,0,0,1-.37-1.119V23.739h3.449V22.219H78.468V18.111h-1.06a.464.464,0,0,0-.324.112.517.517,0,0,0-.159.288l-.482,3.708H70.827V18.111h-1.06a.464.464,0,0,0-.324.112.517.517,0,0,0-.159.288L68.8,22.2l-1.954.249v.834a.437.437,0,0,0,.13.349.471.471,0,0,0,.317.111h1.436v7.3a3.147,3.147,0,0,0,.759,2.272,2.874,2.874,0,0,0,2.172.79,4.461,4.461,0,0,0,1.578-.288,3.893,3.893,0,0,0,1.306-.8l-.611-1a.363.363,0,0,0-.3-.2.387.387,0,0,0-.217.089c-.083.058-.183.123-.3.194a2.41,2.41,0,0,1-.418.194,1.641,1.641,0,0,1-.571.089,1.278,1.278,0,0,1-.942-.364,1.522,1.522,0,0,1-.364-1.119V23.739h5.545v7.3a3.131,3.131,0,0,0,.765,2.272,2.88,2.88,0,0,0,2.166.79,4.466,4.466,0,0,0,1.578-.288,4.037,4.037,0,0,0,1.319-.8l-.625-1a.339.339,0,0,0-.294-.2" transform="translate(25.742 6.975)" fill="#fff"/>
    <path id="Tracé_494" data-name="Tracé 494" d="M87.429,22.167a4.468,4.468,0,0,0-1.578-1.036,5.361,5.361,0,0,0-1.983-.36,5.789,5.789,0,0,0-2.331.454,5.084,5.084,0,0,0-1.754,1.248,5.478,5.478,0,0,0-1.1,1.877,6.951,6.951,0,0,0-.382,2.331,8.12,8.12,0,0,0,.424,2.731,5.624,5.624,0,0,0,1.183,1.995,5,5,0,0,0,1.8,1.224,6.061,6.061,0,0,0,2.277.418,7.791,7.791,0,0,0,1.308-.112A7.368,7.368,0,0,0,86.57,32.6a5.855,5.855,0,0,0,1.159-.571,3.953,3.953,0,0,0,.929-.819l-.589-.765a.459.459,0,0,0-.4-.2.912.912,0,0,0-.476.183,7.46,7.46,0,0,1-.688.395,6.333,6.333,0,0,1-.983.393,4.48,4.48,0,0,1-1.359.183,4.044,4.044,0,0,1-1.531-.277,3.108,3.108,0,0,1-1.177-.835,3.946,3.946,0,0,1-.772-1.395,6.984,6.984,0,0,1-.312-1.967h7.97a.439.439,0,0,0,.4-.165,1.368,1.368,0,0,0,.105-.659,6.346,6.346,0,0,0-.377-2.266,4.736,4.736,0,0,0-1.042-1.67m-6.986,3.454a4.109,4.109,0,0,1,1.089-2.431,3.632,3.632,0,0,1,3.668-.636,2.678,2.678,0,0,1,.958.683,3,3,0,0,1,.6,1.047,4.143,4.143,0,0,1,.2,1.337Z" transform="translate(30.153 7.999)" fill="#fff"/>
    <path id="Tracé_495" data-name="Tracé 495" d="M29.883,35.1a.868.868,0,1,0,0,1.734.867.867,0,1,0,0-1.734" transform="translate(11.157 13.515)" fill="#fff"/>
    <path id="Tracé_496" data-name="Tracé 496" d="M57.622,35.046a.868.868,0,1,0,0,1.734.867.867,0,1,0,0-1.734" transform="translate(21.839 13.496)" fill="#fff"/>
    <path id="Tracé_497" data-name="Tracé 497" d="M38.454,35.564a1.714,1.714,0,0,0-.722-.292l-1.555-.288-.749,4.042.655.12.278-1.506.9.166a1.737,1.737,0,0,0,.778-.014,1.194,1.194,0,0,0,.575-.346,1.4,1.4,0,0,0,.251-1.357,1.184,1.184,0,0,0-.411-.525m-.216,1.112a.675.675,0,0,1-.3.486.971.971,0,0,1-.673.061l-.8-.147.262-1.414.8.147a.973.973,0,0,1,.607.3.684.684,0,0,1,.107.568" transform="translate(13.643 13.472)" fill="#fff"/>
    <path id="Tracé_498" data-name="Tracé 498" d="M40.586,35.6l-1.9,3.961.683.058.485-1.039,1.719.15.3,1.108.7.061-1.19-4.23Zm-.5,2.457.842-1.852.5,1.97Z" transform="translate(14.897 13.709)" fill="#fff"/>
    <path id="Tracé_499" data-name="Tracé 499" d="M46.222,39.689a1.225,1.225,0,0,1-.055-.173,2.771,2.771,0,0,1-.051-.277c-.017-.114-.032-.258-.047-.431a.928.928,0,0,0-.193-.521.809.809,0,0,0-.525-.265V38.01a1.345,1.345,0,0,0,.454-.217.937.937,0,0,0,.284-.353,1.132,1.132,0,0,0,.091-.49,1.107,1.107,0,0,0-.4-.886,1.572,1.572,0,0,0-1.057-.31l-1.676.028.068,4.111.661-.011-.028-1.644.773-.014a1.024,1.024,0,0,1,.647.158.684.684,0,0,1,.242.507c.019.179.036.33.051.454a2.387,2.387,0,0,0,.051.3,1.307,1.307,0,0,0,.069.2l.709-.012v-.018a1.28,1.28,0,0,1-.068-.13M44.7,37.665l-.958.017-.022-1.346.958-.015a.919.919,0,0,1,.609.158A.75.75,0,0,1,45.3,37.49a.926.926,0,0,1-.6.175" transform="translate(16.577 13.768)" fill="#fff"/>
    <rect id="Rectangle_1203" data-name="Rectangle 1203" width="0.667" height="4.11" transform="translate(64.874 49.318) rotate(-5.666)" fill="#fff"/>
    <path id="Tracé_500" data-name="Tracé 500" d="M52.165,37.166a1.613,1.613,0,0,0-.9-.24l-.855-.033a.973.973,0,0,1-.533-.132.471.471,0,0,1-.193-.306.513.513,0,0,1,.035-.313.62.62,0,0,1,.24-.263,1.279,1.279,0,0,1,.47-.168,1.453,1.453,0,0,1,.717.03,1.5,1.5,0,0,1,.618.416l.364-.5a1.883,1.883,0,0,0-.785-.479,2.061,2.061,0,0,0-.981-.033,1.991,1.991,0,0,0-.814.323,1.328,1.328,0,0,0-.46.547,1.107,1.107,0,0,0-.073.657.988.988,0,0,0,.2.453,1.007,1.007,0,0,0,.421.294,1.967,1.967,0,0,0,.648.115l.925.04a.846.846,0,0,1,.482.127.461.461,0,0,1,.177.291.5.5,0,0,1-.05.335.673.673,0,0,1-.276.256,1.621,1.621,0,0,1-.475.157,1.771,1.771,0,0,1-.6.014,1.447,1.447,0,0,1-.5-.177,1.6,1.6,0,0,1-.395-.324l-.37.536a1.8,1.8,0,0,0,.5.359,2.11,2.11,0,0,0,.655.19,2.542,2.542,0,0,0,.792-.03,2.271,2.271,0,0,0,.816-.3,1.3,1.3,0,0,0,.483-.526,1.082,1.082,0,0,0,.083-.686.959.959,0,0,0-.367-.623" transform="translate(18.865 13.516)" fill="#fff"/>
  </g>
</svg>
