<svg id="Groupe_752" data-name="Groupe 752" xmlns="http://www.w3.org/2000/svg" xmlns:xlink="http://www.w3.org/1999/xlink" width="226.48" height="75.021" viewBox="0 0 226.48 75.021">
  <defs>
    <clipPath id="clip-path">
      <rect id="Rectangle_1193" data-name="Rectangle 1193" width="226.48" height="75.021" fill="none"/>
    </clipPath>
  </defs>
  <g id="Groupe_751" data-name="Groupe 751" transform="translate(0 0)" clip-path="url(#clip-path)">
    <path id="Tracé_452" data-name="Tracé 452" d="M81.548,9.7a.7.7,0,0,0-.35.37L74.77,21.726a6.953,6.953,0,0,0-.317.668c-.1.233-.19.47-.277.708q-.133-.357-.285-.7t-.311-.661L67.033,10.074a.765.765,0,0,0-.356-.37,1.67,1.67,0,0,0-.529-.065H64.255V28.59H66.5V14.663a11.6,11.6,0,0,0-.079-1.3l6.64,11.9a.984.984,0,0,0,.926.6h.37a.987.987,0,0,0,.926-.6l6.506-11.85c-.017.221-.033.437-.045.649s-.02.409-.02.594V28.59h2.249V9.638H82.083a1.727,1.727,0,0,0-.535.065" transform="translate(35.733 5.36)" fill="#ece4dc"/>
    <path id="Tracé_453" data-name="Tracé 453" d="M80.638,25.02A5.6,5.6,0,0,0,82.663,26.4a6.809,6.809,0,0,0,2.558.47,8.72,8.72,0,0,0,1.467-.126,8.258,8.258,0,0,0,1.436-.377,6.579,6.579,0,0,0,1.3-.641,4.473,4.473,0,0,0,1.044-.92l-.661-.859a.516.516,0,0,0-.45-.226,1.024,1.024,0,0,0-.535.205,8.381,8.381,0,0,1-.773.443,7.116,7.116,0,0,1-1.1.442,5.033,5.033,0,0,1-1.527.205A4.514,4.514,0,0,1,83.7,24.7a3.492,3.492,0,0,1-1.323-.938,4.433,4.433,0,0,1-.867-1.567,7.844,7.844,0,0,1-.35-2.208h8.954a.494.494,0,0,0,.45-.187,1.529,1.529,0,0,0,.118-.739,7.139,7.139,0,0,0-.423-2.547,5.335,5.335,0,0,0-1.17-1.877,5.041,5.041,0,0,0-1.772-1.164,6.023,6.023,0,0,0-2.228-.4,6.478,6.478,0,0,0-2.619.51,5.691,5.691,0,0,0-1.97,1.4,6.153,6.153,0,0,0-1.237,2.109,7.816,7.816,0,0,0-.429,2.619,9.116,9.116,0,0,0,.476,3.069,6.318,6.318,0,0,0,1.329,2.241m1.825-9.231a4.078,4.078,0,0,1,4.119-.714,3.02,3.02,0,0,1,1.078.767,3.391,3.391,0,0,1,.675,1.176,4.655,4.655,0,0,1,.23,1.5H81.24a4.616,4.616,0,0,1,1.223-2.731" transform="translate(43.84 7.269)" fill="#ece4dc"/>
    <path id="Tracé_454" data-name="Tracé 454" d="M94.04,24.538a2.515,2.515,0,0,1-.859.482,3.662,3.662,0,0,1-1.2.179,4.238,4.238,0,0,1-1.349-.185,4.862,4.862,0,0,1-.918-.409c-.252-.151-.465-.288-.643-.411a.889.889,0,0,0-.5-.185.68.68,0,0,0-.372.093.79.79,0,0,0-.251.265l-.556.9a6.46,6.46,0,0,0,1.931,1.172,6.778,6.778,0,0,0,2.54.456,6.5,6.5,0,0,0,2.168-.331,4.669,4.669,0,0,0,1.587-.906,3.713,3.713,0,0,0,.979-1.362,4.367,4.367,0,0,0,.331-1.713,2.984,2.984,0,0,0-.3-1.382,3.039,3.039,0,0,0-.787-.973,4.686,4.686,0,0,0-1.111-.661c-.414-.176-.84-.336-1.276-.482s-.862-.282-1.276-.409a6.717,6.717,0,0,1-1.111-.443,2.566,2.566,0,0,1-.787-.6,1.26,1.26,0,0,1-.3-.859,1.641,1.641,0,0,1,.179-.761,1.852,1.852,0,0,1,.515-.615,2.622,2.622,0,0,1,.814-.417,3.517,3.517,0,0,1,1.071-.151,4.14,4.14,0,0,1,1.19.151,5.869,5.869,0,0,1,.867.331c.241.118.447.227.615.324a.914.914,0,0,0,.45.146.523.523,0,0,0,.489-.291l.529-.861a5.64,5.64,0,0,0-1.818-1.144,6.42,6.42,0,0,0-2.375-.417,5.975,5.975,0,0,0-2.023.317,4.577,4.577,0,0,0-1.5.853,3.635,3.635,0,0,0-.924,1.243,3.546,3.546,0,0,0-.319,1.475,3.262,3.262,0,0,0,.3,1.461,3.071,3.071,0,0,0,.786,1.011,4.481,4.481,0,0,0,1.119.682c.419.181.845.342,1.282.482s.864.275,1.282.4a6.3,6.3,0,0,1,1.117.45,2.482,2.482,0,0,1,.787.621,1.4,1.4,0,0,1,.3.92,2.164,2.164,0,0,1-.165.845,1.905,1.905,0,0,1-.509.7" transform="translate(48.597 7.269)" fill="#ece4dc"/>
    <path id="Tracé_455" data-name="Tracé 455" d="M111.15,18.334a4.988,4.988,0,0,0,.918-1.567,5.453,5.453,0,0,0,.317-1.878,5.56,5.56,0,0,0-.409-2.175,4.223,4.223,0,0,0-1.264-1.66A5.923,5.923,0,0,0,108.55,10a11.684,11.684,0,0,0-3.108-.364h-5.356V28.59h2.552V20.682h1.945a1.751,1.751,0,0,1,.8.138,1.451,1.451,0,0,1,.482.456l4.92,6.772a1.12,1.12,0,0,0,1.032.542h2.275l-5.529-7.525a2.536,2.536,0,0,0-.847-.806,7.321,7.321,0,0,0,1.964-.741,5.538,5.538,0,0,0,1.469-1.184m-2.421-.556a3.994,3.994,0,0,1-1.428.767,6.49,6.49,0,0,1-1.964.271h-2.7V11.661h2.8a5.39,5.39,0,0,1,3.333.861,3.027,3.027,0,0,1,1.111,2.552,3.876,3.876,0,0,1-.291,1.52,3.171,3.171,0,0,1-.867,1.184" transform="translate(55.658 5.36)" fill="#ece4dc"/>
    <path id="Tracé_456" data-name="Tracé 456" d="M121.6,22.832a8.626,8.626,0,0,0,.443-2.855,8.644,8.644,0,0,0-.443-2.851,6.091,6.091,0,0,0-1.276-2.175,5.689,5.689,0,0,0-2.01-1.39,6.85,6.85,0,0,0-2.645-.489,6.935,6.935,0,0,0-2.664.489,5.658,5.658,0,0,0-2.017,1.39,6.071,6.071,0,0,0-1.278,2.175,8.685,8.685,0,0,0-.442,2.851,8.667,8.667,0,0,0,.442,2.855A6.084,6.084,0,0,0,110.992,25a5.543,5.543,0,0,0,2.017,1.382,6.994,6.994,0,0,0,2.664.484,6.908,6.908,0,0,0,2.645-.484A5.572,5.572,0,0,0,120.328,25a6.1,6.1,0,0,0,1.276-2.169m-2.969.867a3.441,3.441,0,0,1-2.963,1.329,3.488,3.488,0,0,1-3-1.329,6.123,6.123,0,0,1-.985-3.71,8.542,8.542,0,0,1,.244-2.137,4.427,4.427,0,0,1,.741-1.593,3.266,3.266,0,0,1,1.243-.991,4.166,4.166,0,0,1,1.752-.344,3.433,3.433,0,0,1,2.963,1.335,6.219,6.219,0,0,1,.979,3.73,6.156,6.156,0,0,1-.979,3.71" transform="translate(60.767 7.269)" fill="#ece4dc"/>
    <path id="Tracé_457" data-name="Tracé 457" d="M123.218,13.66a6.088,6.088,0,0,0-1.038.682,7.99,7.99,0,0,0-.926.885l-.185-1.455a.581.581,0,0,0-.622-.489h-1.415v13.4H121.4V16.814a6.433,6.433,0,0,1,1.673-1.362,3.946,3.946,0,0,1,1.951-.5,2.585,2.585,0,0,1,2.11.839,3.612,3.612,0,0,1,.694,2.361V26.68h2.367V18.15a6.971,6.971,0,0,0-.291-2.076,4.578,4.578,0,0,0-.853-1.607,3.755,3.755,0,0,0-1.4-1.032,4.862,4.862,0,0,0-1.937-.363,5.454,5.454,0,0,0-1.329.152,5.225,5.225,0,0,0-1.164.436" transform="translate(66.194 7.269)" fill="#ece4dc"/>
    <path id="Tracé_458" data-name="Tracé 458" d="M129.119,27.218a4.33,4.33,0,0,0,1.6,1.3,4.824,4.824,0,0,0,2.088.443,4.979,4.979,0,0,0,2.54-.635,7.273,7.273,0,0,0,1.958-1.667l.212,1.626a.6.6,0,0,0,.635.49h1.4V9.3H137.2v7.42a5.088,5.088,0,0,0-1.567-1.158,4.907,4.907,0,0,0-2.11-.417,5.381,5.381,0,0,0-2.426.535,5.29,5.29,0,0,0-1.819,1.475,6.814,6.814,0,0,0-1.138,2.216,9.242,9.242,0,0,0-.4,2.757,11.02,11.02,0,0,0,.358,2.949,6.205,6.205,0,0,0,1.018,2.143m2.063-8.9a3.377,3.377,0,0,1,2.869-1.335,4.1,4.1,0,0,1,1.72.35,3.8,3.8,0,0,1,1.429,1.236v6.469a5.846,5.846,0,0,1-1.593,1.494,3.813,3.813,0,0,1-2.031.529,3.563,3.563,0,0,1-1.441-.279,2.6,2.6,0,0,1-1.072-.879,4.3,4.3,0,0,1-.66-1.534,9.612,9.612,0,0,1-.226-2.241,6.234,6.234,0,0,1,1.005-3.809" transform="translate(71.039 5.171)" fill="#ece4dc"/>
    <path id="Tracé_459" data-name="Tracé 459" d="M145.13,20.227a4.635,4.635,0,0,0-1.111-.661c-.414-.176-.84-.338-1.276-.482s-.862-.282-1.276-.411a6.856,6.856,0,0,1-1.111-.442,2.585,2.585,0,0,1-.787-.6,1.268,1.268,0,0,1-.3-.859,1.641,1.641,0,0,1,.179-.761,1.836,1.836,0,0,1,.515-.615,2.557,2.557,0,0,1,.814-.417,3.516,3.516,0,0,1,1.071-.152,4.136,4.136,0,0,1,1.19.152,5.7,5.7,0,0,1,.867.331c.243.118.447.227.615.324a.926.926,0,0,0,.45.145.522.522,0,0,0,.49-.291l.528-.859a5.588,5.588,0,0,0-1.818-1.144,6.388,6.388,0,0,0-2.375-.417,5.981,5.981,0,0,0-2.023.317,4.553,4.553,0,0,0-1.494.853,3.62,3.62,0,0,0-.926,1.243,3.565,3.565,0,0,0-.319,1.475,3.261,3.261,0,0,0,.3,1.461,3.087,3.087,0,0,0,.786,1.011,4.51,4.51,0,0,0,1.119.682q.628.271,1.282.482c.437.142.864.275,1.284.4a6.475,6.475,0,0,1,1.117.45,2.519,2.519,0,0,1,.786.622,1.4,1.4,0,0,1,.3.918,2.173,2.173,0,0,1-.166.847,1.913,1.913,0,0,1-.509.7,2.54,2.54,0,0,1-.859.482,3.7,3.7,0,0,1-1.2.179,4.245,4.245,0,0,1-1.349-.185A4.859,4.859,0,0,1,139,24.6q-.378-.224-.641-.409a.885.885,0,0,0-.5-.185.684.684,0,0,0-.37.092.809.809,0,0,0-.252.265l-.556.9a6.425,6.425,0,0,0,1.931,1.17,6.747,6.747,0,0,0,2.54.457,6.511,6.511,0,0,0,2.169-.331,4.751,4.751,0,0,0,1.587-.906,3.732,3.732,0,0,0,.977-1.363,4.365,4.365,0,0,0,.331-1.712,2.98,2.98,0,0,0-.3-1.382,3.022,3.022,0,0,0-.787-.973" transform="translate(76.008 7.269)" fill="#ece4dc"/>
    <path id="Tracé_460" data-name="Tracé 460" d="M69.084,33.716a5.137,5.137,0,0,0-1.567-1.158,4.907,4.907,0,0,0-2.11-.415,5.361,5.361,0,0,0-2.426.535,5.254,5.254,0,0,0-1.819,1.475,6.79,6.79,0,0,0-1.138,2.214,9.249,9.249,0,0,0-.4,2.757,11.019,11.019,0,0,0,.358,2.949A6.205,6.205,0,0,0,61,44.216a4.307,4.307,0,0,0,1.6,1.3,4.836,4.836,0,0,0,2.09.443,4.978,4.978,0,0,0,2.54-.635,7.3,7.3,0,0,0,1.958-1.667l.212,1.628a.6.6,0,0,0,.635.489h1.4V26.3H69.084Zm0,8.319a5.8,5.8,0,0,1-1.593,1.494,3.813,3.813,0,0,1-2.031.529,3.563,3.563,0,0,1-1.441-.277,2.6,2.6,0,0,1-1.072-.879,4.341,4.341,0,0,1-.661-1.534,9.727,9.727,0,0,1-.224-2.242,6.24,6.24,0,0,1,1.005-3.809,3.376,3.376,0,0,1,2.869-1.335,4.1,4.1,0,0,1,1.72.35,3.791,3.791,0,0,1,1.429,1.237Z" transform="translate(33.159 14.623)" fill="#ece4dc"/>
    <path id="Tracé_461" data-name="Tracé 461" d="M79.044,31.638a5.02,5.02,0,0,0-1.772-1.164,6.023,6.023,0,0,0-2.228-.4,6.478,6.478,0,0,0-2.619.51,5.691,5.691,0,0,0-1.97,1.4,6.153,6.153,0,0,0-1.237,2.109,7.809,7.809,0,0,0-.429,2.619,9.123,9.123,0,0,0,.476,3.069,6.318,6.318,0,0,0,1.329,2.241,5.62,5.62,0,0,0,2.024,1.376,6.809,6.809,0,0,0,2.558.47,8.753,8.753,0,0,0,1.469-.126,8.277,8.277,0,0,0,1.435-.377,6.579,6.579,0,0,0,1.3-.641,4.441,4.441,0,0,0,1.044-.92l-.661-.859a.516.516,0,0,0-.45-.226,1.024,1.024,0,0,0-.535.205,8.379,8.379,0,0,1-.773.443,7.114,7.114,0,0,1-1.1.442,5.033,5.033,0,0,1-1.527.205,4.513,4.513,0,0,1-1.719-.311,3.492,3.492,0,0,1-1.323-.938,4.434,4.434,0,0,1-.867-1.567,7.847,7.847,0,0,1-.35-2.21H80.07a.493.493,0,0,0,.45-.185,1.537,1.537,0,0,0,.118-.741,7.13,7.13,0,0,0-.423-2.546,5.321,5.321,0,0,0-1.17-1.877M71.2,35.518a4.616,4.616,0,0,1,1.223-2.731,4.081,4.081,0,0,1,4.121-.714,3,3,0,0,1,1.077.767,3.366,3.366,0,0,1,.675,1.176,4.655,4.655,0,0,1,.23,1.5Z" transform="translate(38.253 16.721)" fill="#ece4dc"/>
    <path id="Tracé_462" data-name="Tracé 462" d="M92.835,36.565a5.89,5.89,0,0,0-1.455-.92c-.542-.241-1.1-.461-1.667-.654s-1.124-.381-1.667-.563a7.881,7.881,0,0,1-1.455-.641A3.356,3.356,0,0,1,85.56,32.9a2.142,2.142,0,0,1-.389-1.316,2.975,2.975,0,0,1,.224-1.158,2.593,2.593,0,0,1,.668-.932,3.239,3.239,0,0,1,1.1-.629,4.54,4.54,0,0,1,1.514-.232,4.723,4.723,0,0,1,1.553.226,6.125,6.125,0,0,1,1.1.5c.305.181.557.345.761.495a.934.934,0,0,0,.529.226.555.555,0,0,0,.336-.1.954.954,0,0,0,.258-.3l.622-1.217A6.847,6.847,0,0,0,91.538,27a7.978,7.978,0,0,0-2.89-.5,6.717,6.717,0,0,0-2.507.437A5.55,5.55,0,0,0,84.3,28.1a4.955,4.955,0,0,0-1.138,1.665,5.446,5.446,0,0,0,0,4.054,4.235,4.235,0,0,0,1.025,1.422,5.356,5.356,0,0,0,1.455.926,17.5,17.5,0,0,0,1.667.629q.845.271,1.665.529a7.109,7.109,0,0,1,1.455.627,3.243,3.243,0,0,1,1.025.92,2.376,2.376,0,0,1,.391,1.408,3.656,3.656,0,0,1-.265,1.416,3.076,3.076,0,0,1-.761,1.091,3.471,3.471,0,0,1-1.211.708,4.909,4.909,0,0,1-1.626.251,5.494,5.494,0,0,1-2.348-.489,5.271,5.271,0,0,1-.812-.464c-.238-.167-.45-.322-.635-.462s-.35-.258-.5-.352a.753.753,0,0,0-.391-.139.6.6,0,0,0-.336.1.943.943,0,0,0-.258.244L81.97,43.4a7.882,7.882,0,0,0,2.578,1.805,8.212,8.212,0,0,0,3.36.668,7.364,7.364,0,0,0,2.692-.462,5.762,5.762,0,0,0,2-1.27,5.407,5.407,0,0,0,1.237-1.9,6.4,6.4,0,0,0,.422-2.334,4.542,4.542,0,0,0-.389-1.984,4.191,4.191,0,0,0-1.032-1.362" transform="translate(45.584 14.737)" fill="#ece4dc"/>
    <path id="Tracé_463" data-name="Tracé 463" d="M101.294,31.638a5.02,5.02,0,0,0-1.772-1.164,6.023,6.023,0,0,0-2.228-.4,6.465,6.465,0,0,0-2.617.51,5.683,5.683,0,0,0-1.972,1.4,6.153,6.153,0,0,0-1.237,2.109,7.809,7.809,0,0,0-.429,2.619,9.123,9.123,0,0,0,.476,3.069,6.319,6.319,0,0,0,1.329,2.241,5.62,5.62,0,0,0,2.024,1.376,6.809,6.809,0,0,0,2.558.47,8.753,8.753,0,0,0,1.469-.126,8.277,8.277,0,0,0,1.435-.377,6.579,6.579,0,0,0,1.3-.641,4.441,4.441,0,0,0,1.044-.92l-.661-.859a.515.515,0,0,0-.448-.226,1.024,1.024,0,0,0-.537.205,8.38,8.38,0,0,1-.773.443,7.115,7.115,0,0,1-1.1.442,5.026,5.026,0,0,1-1.527.205,4.513,4.513,0,0,1-1.72-.311,3.492,3.492,0,0,1-1.323-.938,4.434,4.434,0,0,1-.867-1.567,7.846,7.846,0,0,1-.35-2.21h8.954a.491.491,0,0,0,.45-.185,1.537,1.537,0,0,0,.118-.741,7.129,7.129,0,0,0-.423-2.546,5.321,5.321,0,0,0-1.17-1.877m-7.849,3.881a4.616,4.616,0,0,1,1.223-2.731,4.081,4.081,0,0,1,4.121-.714,3,3,0,0,1,1.077.767,3.366,3.366,0,0,1,.675,1.176,4.654,4.654,0,0,1,.232,1.5Z" transform="translate(50.627 16.721)" fill="#ece4dc"/>
    <path id="Tracé_464" data-name="Tracé 464" d="M106.229,30.053a3.41,3.41,0,0,0-2.261.773,6.045,6.045,0,0,0-1.561,2.149l-.159-2.037a.886.886,0,0,0-.2-.5.737.737,0,0,0-.529-.146h-1.349v13.4h2.368V35.224A7.709,7.709,0,0,1,103.1,34a3.9,3.9,0,0,1,.7-.9,2.651,2.651,0,0,1,.887-.549,3.221,3.221,0,0,1,1.13-.185,3.738,3.738,0,0,1,.808.079,2.73,2.73,0,0,0,.542.079.378.378,0,0,0,.4-.33l.173-1.758a2.12,2.12,0,0,0-.694-.291,3.489,3.489,0,0,0-.814-.093" transform="translate(55.706 16.712)" fill="#ece4dc"/>
    <path id="Tracé_465" data-name="Tracé 465" d="M116.852,30.206a.707.707,0,0,0-.436.138.769.769,0,0,0-.265.35l-3.439,8.624q-.173.49-.291.952t-.226.926q-.105-.465-.224-.926t-.279-.952l-3.4-8.624a.731.731,0,0,0-.251-.344.754.754,0,0,0-.476-.145H105.65l5.462,13.4h2.116l5.463-13.4Z" transform="translate(58.753 16.798)" fill="#ece4dc"/>
    <path id="Tracé_466" data-name="Tracé 466" d="M118.206,28.108a1.6,1.6,0,0,0-.138-.655,1.809,1.809,0,0,0-.37-.542,1.7,1.7,0,0,0-.543-.364,1.641,1.641,0,0,0-.654-.132,1.558,1.558,0,0,0-.643.132,1.675,1.675,0,0,0-.521.364,1.747,1.747,0,0,0-.358.542,1.676,1.676,0,0,0-.132.655,1.576,1.576,0,0,0,.132.641,1.784,1.784,0,0,0,.358.529,1.675,1.675,0,0,0,.521.364,1.558,1.558,0,0,0,.643.132,1.641,1.641,0,0,0,.654-.132,1.7,1.7,0,0,0,.543-.364,1.853,1.853,0,0,0,.37-.529,1.507,1.507,0,0,0,.138-.641" transform="translate(63.867 14.689)" fill="#ece4dc"/>
    <rect id="Rectangle_1191" data-name="Rectangle 1191" width="2.354" height="13.398" transform="translate(179.215 47.002)" fill="#ece4dc"/>
    <path id="Tracé_467" data-name="Tracé 467" d="M129.865,41.8l-.661-.859a.516.516,0,0,0-.45-.226,1.024,1.024,0,0,0-.535.205,8.381,8.381,0,0,1-.773.443,7.115,7.115,0,0,1-1.1.442,5.033,5.033,0,0,1-1.527.205,4.513,4.513,0,0,1-1.719-.311,3.492,3.492,0,0,1-1.323-.938,4.434,4.434,0,0,1-.867-1.567,7.845,7.845,0,0,1-.35-2.208h8.954a.494.494,0,0,0,.45-.187,1.533,1.533,0,0,0,.118-.739,7.139,7.139,0,0,0-.423-2.547,5.335,5.335,0,0,0-1.17-1.877,5.041,5.041,0,0,0-1.772-1.164,6.023,6.023,0,0,0-2.228-.4,6.478,6.478,0,0,0-2.619.51,5.691,5.691,0,0,0-1.97,1.4,6.154,6.154,0,0,0-1.237,2.109,7.816,7.816,0,0,0-.429,2.619,9.117,9.117,0,0,0,.476,3.069,6.318,6.318,0,0,0,1.329,2.241,5.628,5.628,0,0,0,2.023,1.376,6.823,6.823,0,0,0,2.56.47,8.721,8.721,0,0,0,1.467-.126,8.258,8.258,0,0,0,1.436-.377,6.579,6.579,0,0,0,1.3-.641,4.473,4.473,0,0,0,1.044-.92m-8.008-9.013a4.078,4.078,0,0,1,4.119-.714,3.02,3.02,0,0,1,1.078.767,3.391,3.391,0,0,1,.675,1.176,4.655,4.655,0,0,1,.23,1.5h-7.326a4.616,4.616,0,0,1,1.223-2.731" transform="translate(65.747 16.721)" fill="#ece4dc"/>
    <path id="Tracé_468" data-name="Tracé 468" d="M142.691,42.8a.435.435,0,0,0-.244.1c-.093.065-.205.139-.338.218a2.71,2.71,0,0,1-.47.218,1.844,1.844,0,0,1-.641.1,1.443,1.443,0,0,1-1.052-.409,1.7,1.7,0,0,1-.415-1.257v-8.04H143.4V32.024H139.53V27.409h-1.19a.521.521,0,0,0-.364.126.581.581,0,0,0-.179.324l-.542,4.166h-6.308V27.409h-1.19a.521.521,0,0,0-.364.126.581.581,0,0,0-.179.324L128.672,32l-2.2.279v.938a.485.485,0,0,0,.146.391.522.522,0,0,0,.356.126h1.614v8.2a3.536,3.536,0,0,0,.853,2.552,3.229,3.229,0,0,0,2.44.887,5.012,5.012,0,0,0,1.772-.324,4.374,4.374,0,0,0,1.467-.893l-.686-1.124a.407.407,0,0,0-.331-.226.435.435,0,0,0-.244.1c-.093.065-.205.139-.338.218a2.708,2.708,0,0,1-.47.218,1.843,1.843,0,0,1-.641.1,1.436,1.436,0,0,1-1.058-.409,1.71,1.71,0,0,1-.409-1.257v-8.04h6.229v8.2a3.518,3.518,0,0,0,.859,2.552,3.235,3.235,0,0,0,2.434.887,5.018,5.018,0,0,0,1.772-.324,4.535,4.535,0,0,0,1.481-.893l-.7-1.124a.38.38,0,0,0-.33-.226" transform="translate(70.334 15.242)" fill="#ece4dc"/>
    <path id="Tracé_469" data-name="Tracé 469" d="M148.184,31.638a5.019,5.019,0,0,0-1.772-1.164,6.023,6.023,0,0,0-2.228-.4,6.478,6.478,0,0,0-2.619.51,5.692,5.692,0,0,0-1.97,1.4,6.154,6.154,0,0,0-1.237,2.109,7.809,7.809,0,0,0-.429,2.619,9.123,9.123,0,0,0,.476,3.069,6.319,6.319,0,0,0,1.329,2.241,5.62,5.62,0,0,0,2.025,1.376,6.809,6.809,0,0,0,2.558.47,8.753,8.753,0,0,0,1.469-.126,8.277,8.277,0,0,0,1.435-.377,6.578,6.578,0,0,0,1.3-.641,4.441,4.441,0,0,0,1.044-.92l-.661-.859a.516.516,0,0,0-.45-.226,1.024,1.024,0,0,0-.535.205,8.377,8.377,0,0,1-.773.443,7.113,7.113,0,0,1-1.1.442,5.033,5.033,0,0,1-1.527.205A4.514,4.514,0,0,1,142.8,41.7a3.492,3.492,0,0,1-1.323-.938,4.434,4.434,0,0,1-.867-1.567,7.847,7.847,0,0,1-.35-2.21h8.954a.493.493,0,0,0,.45-.185,1.536,1.536,0,0,0,.118-.741,7.13,7.13,0,0,0-.423-2.546,5.321,5.321,0,0,0-1.17-1.877m-7.849,3.881a4.616,4.616,0,0,1,1.223-2.731,4.081,4.081,0,0,1,4.121-.714,3.008,3.008,0,0,1,1.077.767,3.366,3.366,0,0,1,.675,1.176,4.655,4.655,0,0,1,.23,1.5Z" transform="translate(76.703 16.721)" fill="#ece4dc"/>
    <path id="Tracé_470" data-name="Tracé 470" d="M89.623,44.394a.975.975,0,1,0,0,1.948.974.974,0,1,0,0-1.948" transform="translate(49.272 24.688)" fill="#ece4dc"/>
    <path id="Tracé_471" data-name="Tracé 471" d="M117.362,44.344a.975.975,0,1,0,0,1.948.974.974,0,1,0,0-1.948" transform="translate(64.697 24.66)" fill="#ece4dc"/>
    <path id="Tracé_472" data-name="Tracé 472" d="M98.456,44.933a1.925,1.925,0,0,0-.811-.328L95.9,44.281l-.842,4.541.736.135.313-1.691,1.011.187a1.951,1.951,0,0,0,.875-.016,1.341,1.341,0,0,0,.646-.389,1.578,1.578,0,0,0,.282-1.525,1.33,1.33,0,0,0-.462-.59m-.243,1.25a.758.758,0,0,1-.339.546,1.091,1.091,0,0,1-.756.068l-.895-.165.294-1.589.895.165a1.093,1.093,0,0,1,.682.336.768.768,0,0,1,.12.638" transform="translate(52.861 24.625)" fill="#ece4dc"/>
    <path id="Tracé_473" data-name="Tracé 473" d="M100.449,44.9l-2.137,4.45.767.065.545-1.167,1.931.168.333,1.245.789.068-1.337-4.752Zm-.563,2.761.946-2.081.566,2.213Z" transform="translate(54.672 24.967)" fill="#ece4dc"/>
    <path id="Tracé_474" data-name="Tracé 474" d="M106.242,49.473a1.312,1.312,0,0,1-.062-.195,3.109,3.109,0,0,1-.058-.311c-.019-.128-.036-.289-.053-.484a1.042,1.042,0,0,0-.216-.585.909.909,0,0,0-.59-.3v-.014a1.511,1.511,0,0,0,.51-.244,1.053,1.053,0,0,0,.319-.4,1.271,1.271,0,0,0,.1-.551,1.244,1.244,0,0,0-.451-1,1.766,1.766,0,0,0-1.187-.349l-1.883.031.076,4.619.742-.012-.031-1.847.868-.016a1.15,1.15,0,0,1,.727.177.769.769,0,0,1,.272.57c.022.2.04.37.058.51a2.681,2.681,0,0,0,.058.341,1.47,1.47,0,0,0,.078.23l.8-.014v-.02a1.441,1.441,0,0,1-.076-.146M104.529,47.2l-1.077.019-.025-1.513,1.077-.017a1.033,1.033,0,0,1,.685.177A.842.842,0,0,1,105.207,47a1.04,1.04,0,0,1-.678.2" transform="translate(57.098 25.052)" fill="#ece4dc"/>
    <rect id="Rectangle_1192" data-name="Rectangle 1192" width="0.749" height="4.618" transform="translate(165.671 69.876) rotate(-5.666)" fill="#ece4dc"/>
    <path id="Tracé_475" data-name="Tracé 475" d="M112.185,46.719a1.812,1.812,0,0,0-1.016-.269l-.96-.037a1.093,1.093,0,0,1-.6-.148.53.53,0,0,1-.216-.344.576.576,0,0,1,.039-.352.7.7,0,0,1,.269-.3,1.437,1.437,0,0,1,.528-.188,1.633,1.633,0,0,1,.806.034,1.68,1.68,0,0,1,.694.467l.409-.566a2.116,2.116,0,0,0-.882-.538,2.316,2.316,0,0,0-1.1-.037,2.236,2.236,0,0,0-.915.363,1.492,1.492,0,0,0-.517.615,1.244,1.244,0,0,0-.082.738,1.111,1.111,0,0,0,.227.509,1.131,1.131,0,0,0,.473.33,2.21,2.21,0,0,0,.728.129l1.039.045a.95.95,0,0,1,.542.143.518.518,0,0,1,.2.327.556.556,0,0,1-.056.377.756.756,0,0,1-.31.288,1.821,1.821,0,0,1-.534.176,1.989,1.989,0,0,1-.669.016,1.625,1.625,0,0,1-.566-.2,1.8,1.8,0,0,1-.443-.364l-.415.6a2.023,2.023,0,0,0,.563.4,2.414,2.414,0,0,0,.736.213,2.855,2.855,0,0,0,.89-.034,2.523,2.523,0,0,0,.917-.339,1.443,1.443,0,0,0,.543-.59,1.216,1.216,0,0,0,.093-.77,1.078,1.078,0,0,0-.412-.7" transform="translate(60.403 24.689)" fill="#ece4dc"/>
    <path id="Tracé_476" data-name="Tracé 476" d="M.034,40.765l.12.02c.04.467.086.935.143,1.4A42.6,42.6,0,0,0,2.569,51.1l-.047.009.271.612.084.229.017,0a46.272,46.272,0,0,0,5.944,9.64q.957,1.181,2.01,2.272l.012.121c.033,0,.065,0,.1-.008A36.185,36.185,0,0,0,35.444,75.021h.008c.417,0,8.014-.025,13.116-1.79,1.053-.356,2.432-.948,2.743-1.088,17.055-7.626,26.15-27.185,21.157-45.494a35.084,35.084,0,0,0-9.447-15.883L61.549,9.378a.663.663,0,0,0-.065-.181l-.05-.095-.082-.068A37.335,37.335,0,0,0,45.54,1.048L42.95.479,45.1,2.037c2.415,1.754,4.888,3.7,6.234,6.445a12.316,12.316,0,0,1,.552,2.087c.051.238.1.472.151.692-.521-.412-1.044-.75-1.579-1.1-.509-.328-1.036-.671-1.609-1.1a16.138,16.138,0,0,1-5.558-8.054.96.96,0,0,0-.506-.52A10.156,10.156,0,0,0,40.17.143L39.931.126a36.369,36.369,0,0,0-29.68,11.011A37.8,37.8,0,0,0,.118,40.356Zm1.36,1.29q-.065-.542-.115-1.08a21.152,21.152,0,0,0,2.978.215A21.07,21.07,0,0,0,22.827,29.95a10.939,10.939,0,0,0,1.064,5.32,16.7,16.7,0,0,0,1.866,2.664,12.453,12.453,0,0,1,1.713,2.507A30.394,30.394,0,0,1,9.987,49.868c-.809.059-1.579.151-2.438.286-.8.064-1.606.107-2.415.107-.372,0-.744-.006-1.113-.02-.2-.006-.394-.022-.591-.033a40.079,40.079,0,0,1-2.035-8.154m30.019,9.018.048.652c.07.977.132,1.813.237,2.745q-1.375-.738-2.81-1.366.065-1,.138-1.981a55.183,55.183,0,0,0,.187-8.232,9.374,9.374,0,0,0-2.6-5.65,15.854,15.854,0,0,1-1.751-2.491c-1.246-2.329-.98-5.263-.725-8.1.065-.711.124-1.383.163-2.048q.084-1.52.162-3.042c.117-2.253.237-4.584.409-6.867.03-.391.054-.85.079-1.341a28.363,28.363,0,0,1,.355-3.73,18.779,18.779,0,0,1,.17,1.954l.008.132c.11,2.158.092,4.421.073,6.609-.02,2.577-.042,5.243.146,7.784A3.137,3.137,0,0,0,26.7,28.52a1.819,1.819,0,0,0,1.539.274c1.222-.271,1.488-2.3,1.547-3.156.154-2.3.187-4.643.216-6.909.039-2.787.078-5.669.349-8.475.026-.268.058-.486.087-.652.081.453.135,1.144.165,1.517l.012.152c.2,2.415.212,4.938.226,7.378.014,2.53.028,5.146.247,7.665.149,1.719.848,2.569,2.093,2.507.588-.026,1.621-.369,1.942-2.35a25.5,25.5,0,0,0,.148-4.5c-.02-.808-.039-1.572-.02-2.3.022-.853.036-1.743.05-2.647.036-2.448.075-4.978.3-7.23.006-.068.014-.128.022-.179.056.258.106.557.131.762.3,2.484.378,5.2.453,7.818.031,1.127.062,2.239.11,3.321.045.99.112,2,.176,2.983a57.1,57.1,0,0,1,.171,7.329,7.563,7.563,0,0,1-2.351,4.986A11.885,11.885,0,0,0,32,40.314c-.784,1.97-.976,5.488-.587,10.759m-3.3-8.1a54.2,54.2,0,0,1-.187,8.072c-.039.529-.076,1.066-.114,1.607a39.319,39.319,0,0,0-12.945-2.831A31.5,31.5,0,0,0,27.89,41.607a7.66,7.66,0,0,1,.219,1.363m6.083-25.959c-.014.9-.026,1.786-.05,2.636-.019.753,0,1.565.02,2.353a24.542,24.542,0,0,1-.134,4.3c-.1.633-.341,1.394-.9,1.421-.28.014-.808.037-.941-1.5-.215-2.474-.229-5.067-.243-7.575-.012-2.46-.026-5-.229-7.462l-.011-.151a10.688,10.688,0,0,0-.3-2.1,1.085,1.085,0,0,0-.638-.678,1.069,1.069,0,0,0-.915.1c-.233.138-.472.391-.607,1.793C28.973,13,28.933,15.9,28.9,18.715c-.031,2.25-.062,4.577-.215,6.85-.081,1.2-.423,2.093-.682,2.149a.706.706,0,0,1-.641-.081c-.17-.126-.467-.5-.549-1.617-.185-2.5-.162-5.137-.142-7.692.019-2.205.037-4.483-.076-6.676l-.006-.129a11.22,11.22,0,0,0-.316-2.6,1,1,0,0,0-.983-.748,1.191,1.191,0,0,0-1.01,1.013,22.549,22.549,0,0,0-.4,3.669A20.91,20.91,0,0,0,19.22,5.566,34.818,34.818,0,0,1,29.465,1.811a30.156,30.156,0,0,1,4.777,9.548l.124-.037c-.114,1.844-.146,3.789-.174,5.689M12.424,63.875c.347-.014.694-.026,1.039-.026a25.106,25.106,0,0,1,20.013,9.94,35.24,35.24,0,0,1-21.053-9.914M35.462,73.916c-.181-.006-.359-.017-.538-.025a26.215,26.215,0,0,0-21.46-11.149c-.689,0-1.379.036-2.065.089-.591-.629-1.164-1.278-1.71-1.951a45,45,0,0,1-5.583-8.96c1.474-.294,2.6-.51,3.6-.668.809-.067,1.615-.156,2.414-.283.876-.064,1.8-.089,2.963-.089A38.438,38.438,0,0,1,47.53,72.405c-4.953,1.5-12.01,1.511-12.068,1.511m10.746-6.1,0,.014a39.283,39.283,0,0,0-4.679-5.9l.107-51.868a1.474,1.474,0,0,0,.03-.16c.191.159.381.324.458.4,4.91,4.978,6.114,16.666,6.4,23.191l.039.84c.145,3.081.414,8.815-.56,11a5.4,5.4,0,0,1-1.421,1.682,9.4,9.4,0,0,0-1.138,1.169c-2.166,2.82-1.148,7.608-.163,12.239.6,2.818,1.166,5.481.934,7.39M63.127,19.386a11,11,0,0,0,.61-6.321A34.267,34.267,0,0,1,71.4,26.941c4.852,17.788-3.979,36.788-20.541,44.195-.249.11-1.334.577-2.273.917q-.306-.633-.632-1.25a47.83,47.83,0,0,0,7.255-8.19,51.96,51.96,0,0,0,4.927-9.551c.335-.77.7-1.6,1.094-2.5a4.384,4.384,0,0,1,2.588-2.1,10.707,10.707,0,0,0,1.922-1.047A13.914,13.914,0,0,0,71.4,38.4l.123-.752-.753.117a11.5,11.5,0,0,0-7.757,5.523q-.387.7-.72,1.362c.146-.8.251-1.606.353-2.382a16.167,16.167,0,0,1,1.741-6.361,6.13,6.13,0,0,1,1.134-1.138,7.808,7.808,0,0,0,1.393-1.408,12.242,12.242,0,0,0,1.506-10.141l-.051-.185-.156-.112a.687.687,0,0,0-.52-.115c-.881.146-2.725,2.578-2.742,2.6-1.8,2.547-2.446,5.529-2.085,9.651l-.392.817-.064-2.8a16.486,16.486,0,0,0-.52-2.827q-.194-1.274-.467-2.465a10.7,10.7,0,0,0-.328-1.152,12.167,12.167,0,0,1,.453-4.833,4.194,4.194,0,0,1,.731-1.124,5.468,5.468,0,0,0,.851-1.3M56.77,50.992c-.451-.9-.912-1.653-1.32-2.314a10.408,10.408,0,0,1-1.95-5.443,18.655,18.655,0,0,1,.207-3.339c2.613,1.713,4.2,5.8,4.052,8.6a11.274,11.274,0,0,1-.342,1.916c-.11.461-.223.934-.293,1.4a8.421,8.421,0,0,0-.355-.825M61.648,40.15l.087-.182.123.008c-.03.174-.059.35-.087.524-.037-.118-.078-.235-.123-.35M62,48.141a26.221,26.221,0,0,1,1.978-4.315,10.657,10.657,0,0,1,6.172-4.8,12.7,12.7,0,0,1-5.06,7.486,9.707,9.707,0,0,1-1.73.937A12.945,12.945,0,0,0,62,48.141M65.85,26.052a16.361,16.361,0,0,1,1.67-1.866,11.087,11.087,0,0,1-1.53,8.565,7.227,7.227,0,0,1-1.2,1.184c-.3.263-.6.518-.853.773-.288-3.71.305-6.391,1.908-8.657M61.067,10.731a3.62,3.62,0,0,0,.478-1l.576,1.626A10.316,10.316,0,0,1,62.1,18.98,4.894,4.894,0,0,1,61.41,20c-.165.207-.333.417-.481.632a13.318,13.318,0,0,0-.447-1.455,10.4,10.4,0,0,1-.462-1.569,11.208,11.208,0,0,1,.878-6.579c.03-.067.095-.173.168-.294m-13.1-7.893A36.977,36.977,0,0,1,60.393,9.676c-.079.159-.2.369-.275.489a4.041,4.041,0,0,0-.23.415,12.274,12.274,0,0,0-.955,7.213,11.124,11.124,0,0,0,.507,1.744,8.556,8.556,0,0,1,.473,1.69,7.356,7.356,0,0,1-.037,1.519l0,.042-.241-.176a82.962,82.962,0,0,0-4.769-8.135q-.194-.282-.391-.552c-.37-.542-.666-1.033-.94-1.5a11.038,11.038,0,0,1-.565-2.091A12.189,12.189,0,0,0,52.324,8a15.774,15.774,0,0,0-4.356-5.158M59.963,24.225c-.006.068-.012.137-.017.205l-.134-.316Zm-1.494-.706c-.409-.221-.847-.414-1.307-.618a22.142,22.142,0,0,1-2.081-1.016,12.178,12.178,0,0,1-4.057-3.812c-.188-.269-.59-.9-.876-1.394a9.735,9.735,0,0,1,6.392,3.5,8.316,8.316,0,0,1,.762,1.391,8.413,8.413,0,0,0,.98,1.719ZM39.846,1.227l.243.019a17.923,17.923,0,0,1,2.191.232,17.132,17.132,0,0,0,5.9,8.467c.605.454,1.148.806,1.674,1.147a11.082,11.082,0,0,1,3.05,2.6c.223.282.443.573.66.871.109.159.224.321.347.489l.047.064c.545.789,1.075,1.639,1.6,2.561A11,11,0,0,0,49.3,15.52h-.227l-.162.159c-.23.226-.546.534,1.209,3.03a13.23,13.23,0,0,0,4.415,4.138,23.253,23.253,0,0,0,2.18,1.066c1.623.717,2.631,1.162,3.291,2.964a22.389,22.389,0,0,0,.652,3.055c.048.184.1.364.143.545a47.094,47.094,0,0,1,.478,7.367,2.18,2.18,0,0,1-.233-.545c-.084-.356-.138-.72-.195-1.108-.064-.431-.129-.878-.24-1.32a10.72,10.72,0,0,0-7.872-7.927l-.819-.2.14.831a14.8,14.8,0,0,0,3.385,7.81,22.38,22.38,0,0,0,2.149,1.911,17.429,17.429,0,0,1,2.488,2.292c1.539,2.023.839,5.632-.154,8.857l-.008.023a31.952,31.952,0,0,0-1.139,3.372c-.185.531-.358,1.027-.5,1.475l-.124.282c0-.535,0-1.038.031-1.352a12.275,12.275,0,0,1,.307-1.572,11.772,11.772,0,0,0,.37-2.113c.17-3.137-1.57-7.725-4.671-9.665l-.037-.023a1.126,1.126,0,0,0-.845-.244.689.689,0,0,0-.436.314c-.472.772-.515,3.834-.476,4.376a11.467,11.467,0,0,0,2.112,5.944c.414.674.843,1.369,1.271,2.228.977,1.959,1.386,5.448.408,7.32A46.133,46.133,0,0,1,47.4,69.793c-.058-.1-.118-.2-.176-.3a4.289,4.289,0,0,0,.062-.946,4.939,4.939,0,0,1,.017-.6c.254-2.091-.33-4.841-.949-7.753-.934-4.385-1.9-8.92-.042-11.335a8.305,8.305,0,0,1,1.008-1.025,6.356,6.356,0,0,0,1.685-2.049c1.08-2.431.812-8.112.654-11.506l-.039-.837c-.288-6.683-1.544-18.678-6.713-23.919a6.827,6.827,0,0,0-1.385-1.05.646.646,0,0,0-.559.089,1.269,1.269,0,0,0-.384,1.025c0,.059-.008.115-.012.16l-.039.065-.106,51.009a39.631,39.631,0,0,0-7.532-5.684c-.167-1.259-.24-2.261-.328-3.492l-.048-.655c-.372-5.028-.2-8.482.51-10.267a10.957,10.957,0,0,1,2.118-3.184A8.671,8.671,0,0,0,37.761,31.9a57.791,57.791,0,0,0-.171-7.474c-.064-.974-.131-1.981-.174-2.96-.048-1.075-.079-2.182-.11-3.3-.075-2.648-.153-5.386-.459-7.921-.227-1.874-.607-1.965-.834-2.02a1.111,1.111,0,0,0-.94.152,1.247,1.247,0,0,0-.447.646,31.23,31.23,0,0,0-3.957-7.434,38.465,38.465,0,0,1,9.178-.366m20.279,36.78c-.54-.512-1.19-1.047-1.828-1.57a22.077,22.077,0,0,1-2.035-1.8,13.072,13.072,0,0,1-2.947-6.371,9.643,9.643,0,0,1,6.226,6.876,12.189,12.189,0,0,1,.218,1.209c.058.394.117.8.212,1.2a2.5,2.5,0,0,0,.156.456M11.05,11.9A34.942,34.942,0,0,1,18.232,6.14a19.794,19.794,0,0,1,5.375,9.639l.087-.02c-.132,1.923-.233,3.859-.331,5.744-.053,1.013-.1,2.024-.162,3.036-.036.646-.1,1.309-.16,2.01-.02.224-.04.451-.059.68l-.123-.045a19.943,19.943,0,0,1-18.6,12.9,20.013,20.013,0,0,1-3.069-.238A36.668,36.668,0,0,1,11.05,11.9" transform="translate(0 0)" fill="#ece4dc"/>
  </g>
</svg>
